<?xml version="1.0" encoding="UTF-8"?>
<svg id="Layer_1" data-name="Layer 1" xmlns="http://www.w3.org/2000/svg" viewBox="0 0 898.43 317.9">
  <defs>
    <style>
      .cls-1 {
        fill: none;
      }

      .cls-1, .cls-2 {
        stroke: #000;
        stroke-miterlimit: 10;
      }

      .cls-2, .cls-3 {
        fill: #ffb6c1;
      }

      .cls-4 {
        fill: #000111;
      }
    </style>
  </defs>
  <rect class="cls-3" x=".51" y=".5" width="272.73" height="114.29" rx="57.14" ry="57.14"/>
  <rect class="cls-3" x="99.21" y="79.72" width="81.82" height="237.66" rx="40.91" ry="40.91"/>
  <rect class="cls-3" x="323.55" y=".5" width="103.9" height="316.88" rx="51.95" ry="51.95" transform="translate(-31.72 138.01) rotate(-20)"/>
  <rect class="cls-3" x="383.67" y="107" width="316.88" height="103.9" rx="51.95" ry="51.95" transform="translate(207.34 614) rotate(-70)"/>
  <rect class="cls-3" x="346.82" y="186.03" width="158.44" height="96.1" rx="48.05" ry="48.05" transform="translate(33.83 521.28) rotate(-65)"/>
  <rect class="cls-3" x="445.68" y="154.87" width="96.1" height="158.44" rx="48.05" ry="48.05" transform="translate(-52.67 230.59) rotate(-25)"/>
  <rect class="cls-3" x="671.34" y="24.5" width="87.01" height="292.88" rx="43.51" ry="43.51"/>
  <ellipse class="cls-3" cx="783.63" cy="79.72" rx="114.29" ry="79.22"/>
  <g>
    <path class="cls-4" d="M786.88,114.29c-28.01,0-50.8-14.92-50.8-33.27s22.79-33.27,50.8-33.27,50.8,14.92,50.8,33.27-22.79,33.27-50.8,33.27Z"/>
    <path d="M786.88,48.25c27.73,0,50.3,14.7,50.3,32.77s-22.56,32.77-50.3,32.77-50.3-14.7-50.3-32.77,22.56-32.77,50.3-32.77M786.88,47.25c-28.33,0-51.3,15.12-51.3,33.77s22.97,33.77,51.3,33.77,51.3-15.12,51.3-33.77-22.97-33.77-51.3-33.77h0Z"/>
  </g>
  <polygon class="cls-2" points="45.48 1.8 228.25 1.8 249.55 11.32 262.65 24.5 272.29 47.25 272.29 68.03 263.22 89.97 248.96 104.39 222.59 114.79 181.03 114.79 181.03 284.92 166.36 307.85 145.97 317.38 125.26 314.59 109.3 303.36 99.21 291.41 99.21 114.79 45.48 113.49 19.17 99.89 5.5 81.02 .51 57.64 5.73 33.76 23.38 11.92 45.48 1.8"/>
  <polygon class="cls-1" points="309.9 15.88 294.6 32.03 288.44 47.25 290.26 76.64 356.01 257.3 365.48 282.3 375.5 296.07 392.56 305.88 408.12 310.16 429.69 307.83 441.71 300.77 456.42 282.64 473.22 296.62 487.92 307.83 502.21 310.16 514.81 310.16 527.21 305.88 542.11 296.07 554.51 276.78 627.35 76.64 630.48 57.64 629.17 47.25 622.14 30.65 607.71 15.88 596.3 10.06 574.54 7.07 542.11 21.82 493.73 158.61 470.04 158.94 460.25 162.29 449.73 158.94 431.02 159.59 382.99 31.11 369.35 16.66 357.65 7.07 343.07 7.07 321.31 10.06 309.9 15.88"/>
  <polygon class="cls-1" points="671.34 291.41 671.34 68.01 679.35 47.25 696.23 28.68 714.85 16.45 735.58 7.83 762.94 1.8 797.91 .5 821.47 4.95 851.78 16.13 873.25 30.57 890.82 52.19 897.91 79.72 890.17 108.44 857.35 140.25 834.1 150.81 794.02 158.61 773.14 158.61 758.36 145.96 758.36 281.02 750.53 298.76 735.58 317.38 714.85 317.38 690.85 310.16 671.34 291.41"/>
</svg>