<?xml version="1.0" encoding="UTF-8"?>
<svg id="Layer_1" data-name="Layer 1" xmlns="http://www.w3.org/2000/svg" viewBox="0 0 450.81 630">
  <defs>
    <style>
      .cls-1 {
        stroke: #000;
      }

      .cls-1, .cls-2, .cls-3 {
        fill: none;
      }

      .cls-1, .cls-3 {
        stroke-miterlimit: 10;
      }

      .cls-3 {
        stroke: #231f20;
        stroke-linecap: round;
      }
    </style>
  </defs>
  <ellipse class="cls-1" cx="225.01" cy="89" rx="224.51" ry="88.5"/>
  <ellipse class="cls-1" cx="225.09" cy="541" rx="224.51" ry="88.5"/>
  <line class="cls-3" x1="1.61" y1="79.89" x2="1.61" y2="530.55"/>
  <line class="cls-3" x1="450.31" y1="81.22" x2="450.31" y2="543.56"/>
  <g>
    <rect class="cls-2" x="36.68" y="207.19" width="385.71" height="79.22"/>
    <path d="M37.43,209.38c.29-.09.89-.4,1.79-.93.29-.16.67-.25,1.14-.25s.99.19,1.56.56l.69.09c.62.09,1.14.16,1.55.19l2.11.16.76.09h.02c.06,0,.18,0,.37-.02.66-.07,1.14-.11,1.46-.11.16,0,.42.01.76.04l2.46.14s.28-.05.7-.19c.08-.04.16-.05.23-.05.02,0,.18.04.47.12.53.04.88.08,1.05.14.12.04.35.12.7.25.47-.27.84-.4,1.12-.4.08,0,.51.08,1.28.23l.56-.11c.38.08.59.12.63.12l.49-.02,1.25.02.95-.05.33.02c.4.01.62.02.65.04l.77.25.09-.05.23-.47c.38.05.64.07.81.07l1.16-.21h.04c.04.06.16.34.39.84l.3-.51s.23-.05.65-.05c.02,0,.34-.15.95-.46.05-.02.09-.04.12-.04.11,0,.18.04.21.12l.39.84.91-.98.39-.09.44-.18c.2.02.34.13.42.32l-.37.32-.07.3c-.25.11-.39.19-.44.25l-.42.56c-.05.06-.2.15-.46.28-.27.13-.54.19-.81.19-.09,0-.22-.01-.37-.04-.4-.08-.64-.12-.74-.12-.11,0-.22,0-.33.02-.32.05-.5.07-.56.07-.14,0-.39-.04-.74-.12-.3-.06-.58-.09-.83-.09-.05,0-.49.05-1.34.16-.21.02-.41.04-.6.04-.06,0-.71-.04-1.95-.11l-.69.11-1.12-.65-.51.65-.35-.12-.47-.04-.83-.07-.21.07c-.15.05-.3.07-.44.07h-.02c-.08,0-.46-.03-1.14-.09-.15-.01-.29-.02-.42-.02-.19,0-.35.04-.49.12.07.09.11.15.11.16,0,.08-.21.3-.63.65-.06.05-.24.33-.54.86-.05.08-.2.28-.46.6-.2.25-.3.41-.3.49,0,.33.36.62,1.09.88.35.13.53.24.53.33,0,.01-.07.13-.21.35-.07.11-.12.27-.16.49h-.3l.04.56.42.23c.12.22.18.39.18.49,0,.12-.02.34-.07.67-.02.16-.04.34-.04.53,0,.2.04.76.12,1.67l.05.88c.01.36.03.67.05.91.02.3.04.47.04.51,0,.23-.07.38-.21.44-.01.01-.09.04-.25.09-.09.02-.21.09-.35.21v.11l-.05.05.4.33v.58l.49.23c-1.02.54-1.53,1.07-1.53,1.6,0,.49.49.92,1.48,1.28-.15.16-.23.3-.23.42,0,.11.02.36.07.77.01.12.02.24.02.37,0,.08,0,.21-.02.37l.19.09c-.08.49-.12.83-.12,1.02v.02l.05.69c.02.62.04.98.05,1.07.01.06.07.25.18.58-.18.43-.26.71-.26.84,0,.09,0,.22.02.37l-.05.05c-.42.06-.63.2-.63.42v.02l.11.39.58-.16c.01.23.04.39.07.47.07.22.11.35.11.37,0,.01-.02.12-.07.32-.01.07-.02.15-.02.23,0,.09.03.59.09,1.49.01.15-.05.69-.18,1.62-.02.2-.04.39-.04.56,0,.11.08.43.23.98-.07.43-.13.67-.18.72-.07.05-.28.12-.62.21-.22.07-.38.15-.47.23l-.26.28c-.28,0-.44.01-.47.04-.68.42-1.12.68-1.34.77-.2-.23-.3-.43-.3-.58,0-.05.05-.26.16-.63l-.02-.51.12-.49.07-.93.07-.53c0-.42.02-.69.07-.81.07-.16.25-.36.53-.6-.23-.25-.35-.45-.35-.62v-.02l.05-.77v-.91c.04-.46.05-.81.05-1.07l.26-.32c-.01-.13-.02-.22-.02-.28,0-.11.02-.27.05-.49l-.28-.26h-.07l.11-.37v-2.87c-.01-.09.01-.29.07-.6s.09-.56.09-.76c0-.07-.04-.29-.11-.67l-.09-.81c-.02-.22-.04-.35-.04-.39,0-.02.08-.26.23-.7.01-.27.03-.42.05-.46.04-.09.19-.16.47-.21v-.32l-.56.12c-.08-.29-.12-.49-.12-.58,0-.11.03-.29.09-.54.02-.11.05-.27.09-.49-.16-.06-.3-.12-.4-.18l.05-.42v-3.38c0-.2.22-.4.67-.6.45-.21.67-.37.67-.47,0-.06-.23-.22-.69-.47-.2-.11-.43-.28-.7-.53.27-.13.4-.25.4-.37,0-.01-.06-.23-.19-.65-.01-.04-.02-.08-.02-.14,0-.13.01-.28.04-.44-.32-.35-.47-.77-.47-1.27,0-.12.09-.31.26-.58-.09-.3-.16-.5-.19-.6l-.04-.09c.01-.32.53-.7,1.56-1.16.11-.05.16-.09.16-.14,0-.04-.54-.17-1.63-.4-.13-.02-.19-.11-.19-.25,0-.05.02-.12.07-.21-.38-.16-.94-.26-1.71-.28-.23,0-.58-.02-1.04-.05h-.05s-.33.04-.84.12l-1.35-.11s-.17.04-.37.12c-.19-.14-.36-.21-.51-.21h-.44l-.93-.32-.28.12-.33.14-.6.28c-.49-.11-.77-.16-.83-.16-.11,0-.42.04-.93.11h-.84l-.63.02c-.11,0-.41-.06-.91-.18-.04-.01-.11-.02-.21-.02-.2,0-.54.03-1.04.09-.01-.02-.02-.05-.04-.09-.02-.02-.04-.04-.04-.05,0-.08.08-.21.25-.37.09-.08.19-.22.3-.4Z"/>
    <path d="M73.19,224.32c.07-.21.18-.4.33-.58.12-.13.42-.31.91-.54.5-.32.79-.47.86-.47.21,0,.37.08.47.23l.07.3.14.54c-.04.13-.05.23-.05.3,0,.11.06.23.19.37.23-.07.55-.22.95-.44l.74-.25.74-.49.47-.19c.26-.13.4-.19.42-.19l.39.07h.05c.06,0,.46-.12,1.2-.37.08-.02.26-.04.53-.04.2,0,.34.03.42.09.01.01.13.13.37.35.14.04.22.05.25.05s.19-.08.51-.25c.02-.01.05-.02.09-.02.15,0,.33.09.53.26.19.16.32.42.4.76-.18.18-.53.45-1.05.83-.26.33-.45.49-.56.49-.19,0-.43-.19-.74-.56-.21.02-.39.04-.53.04-.15,0-.4-.07-.76-.21-.28-.11-.57-.18-.86-.21-.12.23-.31.36-.58.39-.33.02-.53.05-.62.07l-.7.21s-.14-.04-.28-.12c-.23.21-.64.53-1.23.95-.38.27-.56.74-.54,1.42v.62c.01.21.02.39.02.53,0,.13-.13.32-.4.58.2.21.3.39.3.54,0,.08-.01.18-.04.3l.26.07.05.53.09,3.15-.07.19-.46.25c-.66.13-.98.22-.98.26s.37.12,1.11.23l.3-.07c.12.39.18.65.18.79,0,.27-.13.48-.4.63-.11.06-.4.12-.9.18-.09.02-.35.17-.76.44-.07.05-.15.07-.25.07-.28,0-.42-.12-.42-.37,0-.07.09-.4.26-1,.02-.07.04-.14.04-.21,0-.02-.03-.29-.09-.79,0-.04.02-.13.07-.3l.42-.12c.01-.11.02-.2.02-.28,0-.15-.09-.33-.26-.54v-.44c0-.11-.04-.38-.11-.83.04-.39.05-.71.05-.98.43-.15.65-.34.65-.56,0-.07-.02-.16-.05-.28-.14.04-.26.05-.35.05-.08,0-.18-.05-.3-.14v-1.76c0-.09,0-.2-.02-.32v-.28c0-.19.08-.44.23-.76-.15-.13-.24-.24-.26-.33-.01-.04-.04-.42-.07-1.14-.01-.14-.14-.36-.39-.67Z"/>
    <path d="M88.6,230.11c.14-.22.28-.38.4-.46.09-.06.45-.15,1.05-.28.45-.22.74-.36.9-.4.11-.02.46-.06,1.05-.12l.56-.19.33-.04.32-.04h.69l1.39-.18c.41-.04.67-.09.77-.16.21-.15.32-.38.32-.67,0-.06-.05-.25-.14-.56l.91-1.14s-.36-.13-1.09-.35c-.06-.02-.23-.04-.53-.04-.5-.64-.8-1-.9-1.07-.12-.05-.56-.13-1.34-.25h-.56c-.26-.07-.43-.11-.51-.11-.09,0-.23.01-.4.04l-.33-.42c-.26.09-.46.22-.6.39-.12.13-.3.24-.54.33-.61.26-1.11.54-1.51.86l-.25.16c-.15.22-.25.35-.3.37-.14.08-.3.12-.49.12-.07,0-.29-.06-.65-.19-.4-.09-.64-.17-.74-.23-.11-.07-.24-.22-.4-.44.2-.15.34-.26.42-.33.2-.18.33-.27.4-.28l.83-.19.53-.28,1.12-.35.7-.3h.72l.79-.23.33-.02.62-.11c.57.01.94.02,1.09.02.16.01.48.09.95.25l.42.05c.46.08.78.14.97.18.16.01.38.14.63.39-.2.18-.3.32-.3.44,0,.16.07.25.21.25.09,0,.23-.05.4-.14.12-.05.28-.1.49-.16.15.15.23.35.25.6l.44.32c.02.13.04.21.04.25l-.05.69c.13.52.26.84.39.97h.07c.04.26.08.54.14.84.04.68.06,1.13.07,1.35-.27.16-.4.32-.4.47,0,.18.16.33.47.47.01.15.02.28.02.39s-.02.31-.07.62c-.01.13-.02.26-.02.39,0,.39.06.87.19,1.44-.21.21-.32.42-.32.63,0,.18.1.4.3.69.02.05.06.16.12.33.04.08.1.24.19.47-.13.15-.22.3-.28.44-.09.08-.28.18-.54.28l-.67.3-.42.12c-.43.15-.67.23-.72.23-.12,0-.25-.06-.39-.19l.26-1.18c-.34.08-.83.26-1.48.54l-.51.11c-.3.07-.46.11-.47.11l-.65-.07-.65.33-.35.04-1.42.3-.74-.05c-.36.13-.61.19-.74.19-.16,0-.62-.08-1.37-.23l-.74-.07-.54-.23c-.41-.15-.71-.3-.91-.46-.18-.13-.32-.35-.42-.67l-.4-.14c-.05-.12-.1-.33-.16-.63l-.18-.76v-.02c-.01-.11.06-.28.23-.51.13-.18.29-.47.49-.9.57-.56.96-.93,1.14-1.09.16-.13.53-.31,1.11-.54.33-.21.53-.32.62-.32.09,0,.21.01.33.04ZM87.51,233.83c-.09.15-.18.31-.26.47-.13.21-.19.35-.18.42l.18.33.49-.42c.4.28.67.43.83.46.43.12.67.18.7.19.07.05.17.17.3.37.27.04.45.06.54.07s.17.02.23.02c.13,0,.29-.08.47-.25.16.12.3.18.42.18.02,0,.15-.08.39-.23l.49.11.95-.33.46-.21.39.07.67-.28.77-.3c.2-.3.32-.48.37-.53.11-.11.31-.2.62-.28l.11-.56c.21-.12.34-.28.39-.49-.16-.12-.28-.24-.35-.37.01-.2.02-.35.02-.44v-.28c-.01-.32-.02-.59-.04-.81-.01-.07-.02-.13-.02-.19,0-.14.05-.35.14-.62-.11-.01-.24-.08-.4-.21l-.76.02-.69-.04-.53.02h-.33s-.22-.09-.53-.28l-.39.12c-.47,0-.81.04-1.04.11-.14.06-.26.09-.35.09-.02,0-.16-.04-.4-.11h-.04c-.06,0-.25.11-.56.32-.05.04-.35.15-.91.35-.75.33-1.29.64-1.62.93-.04.04-.16.21-.39.53-.07.11-.28.21-.62.3-.05.08-.07.15-.07.19,0,.04.05.11.14.21l.12.95c.02.08.12.22.28.4Z"/>
    <path d="M112.56,229.69l-.46.33c-.46-.13-.82-.19-1.09-.19-.32,0-.7.02-1.14.07-.13-.27-.3-.47-.53-.62l-.33.44c-.25.04-.54.1-.88.19-.14.04-.26.05-.37.05-.02,0-.06,0-.11-.02l-.67-.14s-.03.02-.05.05l-.33-.35c-.19.08-.35.12-.47.12-.05,0-.19-.06-.44-.18-.06-.02-.16-.06-.32-.12-.9-.32-1.35-.83-1.35-1.55,0-.62.24-1.24.72-1.85.13-.18.46-.49.98-.93l.35-.33.83-.49c.84-.52,1.46-.86,1.86-1.02.91-.38,1.65-.56,2.2-.56.09,0,.62.12,1.58.37l.91-.16c.57.04.91.08,1,.12.23.12.35.23.35.35s-.06.23-.18.35c-.04.02-.32.2-.86.53-.56.34-.88.51-.95.51-.76,0-1.32-.05-1.67-.16-.12-.25-.24-.45-.37-.6h-.11l-.33.35c-.2.01-.35.02-.44.02-.11,0-.21,0-.3-.02-.13-.01-.22-.02-.28-.02-.02,0-.18.04-.46.11-.09-.07-.27-.11-.53-.11-.23.18-.62.41-1.16.7-.28.15-.52.38-.73.69s-.31.59-.31.86c0,.13.11.29.33.49.04.04.24.13.62.28.22.11.45.23.69.39-.01.09-.02.17-.02.23,0,.25.1.37.3.37.19,0,.4-.15.63-.46.27.04.5.05.69.05.07,0,.4-.05,1-.16l.56.05c.52-.07.8-.11.84-.11.08,0,.38.08.9.25l.63-.07.63.44c.68.32,1.14.62,1.39.9.19.23.29.42.32.56l.12.58c.16.7.25,1.11.25,1.21,0,.07-.02.28-.07.62-.06.75-.28,1.12-.65,1.12-.12,0-.25-.02-.4-.05-.14.59-.26.92-.35,1-.53.61-.87,1.02-1.02,1.23-.6.08-1.09.26-1.48.54-.18.14-.28.22-.32.23s-.18.03-.44.05l-1.42.39c-.47-.08-.73-.12-.77-.12-.07,0-.42.09-1.05.28l-.42-.05c-.56-.04-.98-.08-1.27-.14-.61-.15-.93-.26-.97-.33l-.56-.37c-.69-.42-1.12-.73-1.28-.91-.35-.41-.53-.81-.53-1.2,0-.08.13-.22.39-.42l.47-.44c.45-.33.7-.49.77-.49.05,0,.09.02.12.05.27.26.4.54.4.84l-.07.56v.02c-.01.11.02.19.09.25.05.05.26.18.63.39.08.05.19.12.32.23.29.26.45.39.46.39l.65.26.6.32h.67l.42.09c.43-.13.82-.2,1.16-.21.33-.01.57-.06.72-.14l.69-.33c.38-.13.59-.22.65-.26.22-.18.52-.56.88-1.16.38-.62.56-1.33.56-2.13,0-.18-.05-.34-.16-.49-.46-.69-.75-1.17-.88-1.42Z"/>
    <path d="M119.61,208.26c.11-.2.35-.39.72-.58l1.16-.6c.32-.15.63-.23.93-.23.11,0,.25.05.42.16-.56.23-.88.39-.95.47l-.67.7,1.35,1.28c.06.06.09.18.09.35,0,.09-.06.29-.19.58l-.16.33-.3.14s-.08.1-.14.23-.09.23-.09.3c0,.12.02.26.07.42.13,0,.28-.05.44-.16.12-.06.23-.1.35-.12l-.18,3.08c0,.09.01.25.04.46.01.16.02.3.02.4,0,.25-.13.51-.4.79,0,.26.03.42.09.47l.32.37c.07.08.11.22.11.42,0,.09-.06.39-.19.88l.11.69c.06.64.09.98.09,1,0,.04-.06.23-.19.6l.12.74-.04.35c.07.36.11.55.11.56,0,.06-.01.13-.04.21-.14.63-.21,1.25-.21,1.85,0,.25.06.5.18.77.63-.35,1.39-.96,2.27-1.81l.74.14c.27-.18.57-.3.9-.37.54-.11.87-.16.98-.16.13,0,.28.09.46.26l.11.39h.42c.08-.08.18-.22.28-.42.05-.11.12-.15.21-.14l1.05.07c1.04.07,1.61.13,1.71.19.01.01.21.23.58.65.13.16.38.33.76.49l-.26.53c.15.11.36.16.62.16.25.32.37.63.37.95,0,.38-.02.78-.05,1.21-.04.4-.12.67-.25.81l-.21.21.26.69-.35.42-.05.16.47.49c-.06.16-.09.27-.09.32l.02.44.05,1.05.02.19c-.21.35-.32.56-.32.63s.08.47.23,1.21l-.04,1.51s0,.08.02.21c-.27.18-.6.29-.98.33-.2.15-.4.27-.62.35-.26.09-.48.19-.67.28l-.62-.54c.08-.29.21-.62.37-.97.2-.45.3-.9.3-1.35,0-.11-.08-.38-.25-.83l.05-.23.11-.65c.14-.38.25-.87.33-1.48l-.3-.18c0-.4.06-1.09.19-2.07.01-.08.02-.15.02-.21v-.12c-.08-.55-.12-.83-.12-.84s.02-.06.07-.16c.05-.11.07-.19.07-.25v-.02c0-.06-.08-.25-.25-.58-.09-.21-.23-.38-.42-.49-.06-.05-.26-.11-.6-.19-.47-.23-.74-.36-.83-.39-.06-.01-.3-.02-.74-.02-.66-.09-1.04-.14-1.16-.14-.09,0-.21,0-.35.02-.5.04-.79.05-.86.05-.43.01-.91.08-1.42.19l-.23.05-1.02.53-.62.21c-.86.76-1.28,1.19-1.28,1.28,0,.29.39.52,1.16.69-.05.25-.08.4-.09.47-.07.35-.13,1-.18,1.93-.25,0-.42.05-.51.14v.11c.3.35.49.65.56.9.09.32.15.82.18,1.51l.09.56-.16.77.09.47v.3l.02.32c0,.08-.06.2-.19.35-.01.02-.38.15-1.11.39-.19.06-.47.26-.84.62l-.4-.35c.01-.35.09-.79.25-1.32v-.51s.08-.19.25-.49c.08-.14.12-.28.12-.42,0-.08-.03-.18-.09-.28-.14-.25-.21-.39-.21-.44v-.02l.05-.9v.39-1.21c0-.06,0-.15.02-.28.01-.12.02-.19.02-.21l-.04-.65.09-1.32-.05-1.02c.02-.12.05-.23.07-.33.01-.05.16-.2.46-.46.07-.06.11-.15.11-.28,0-.16-.02-.35-.05-.56l-.42.12c-.14-.55-.21-1.18-.21-1.9,0-.89.03-1.89.09-2.99l.6-.07c-.14-.26-.24-.53-.3-.83l-.4-.28c.05-.34.07-.59.07-.76,0-.18-.02-.37-.05-.58-.12-.82-.18-1.4-.18-1.74,0-.28.11-.51.33-.69.55-.41.83-.64.83-.69v-.02c-.25-.25-.66-.39-1.25-.42.05-.18.08-.39.11-.65.14-.41.21-.64.21-.7,0-.18-.12-.36-.37-.54.01-.3.02-.54.02-.7,0-.23,0-.45-.02-.63-.02-.4-.04-.66-.04-.79,0-.07.04-.32.11-.76-.28-.89-.42-1.39-.42-1.51s0-.25.02-.4l-.35-.35Z"/>
  </g>
</svg>